<?xml version="1.0" encoding="UTF-8" standalone="no"?>
<!-- Created with Inkscape (http://www.inkscape.org/) -->

<svg
   xmlns:dc="http://purl.org/dc/elements/1.1/"
   xmlns:cc="http://creativecommons.org/ns#"
   xmlns:rdf="http://www.w3.org/1999/02/22-rdf-syntax-ns#"
   xmlns:svg="http://www.w3.org/2000/svg"
   xmlns="http://www.w3.org/2000/svg"
   xmlns:sodipodi="http://sodipodi.sourceforge.net/DTD/sodipodi-0.dtd"
   xmlns:inkscape="http://www.inkscape.org/namespaces/inkscape"
   width="175"
   height="40"
   id="svg2"
   version="1.1"
   inkscape:version="0.48.2 r9819"
   sodipodi:docname="buskeet.svg">
  <defs
     id="defs4" />
  <sodipodi:namedview
     id="base"
     pagecolor="#ffffff"
     bordercolor="#666666"
     borderopacity="1.0"
     inkscape:pageopacity="0.0"
     inkscape:pageshadow="2"
     inkscape:zoom="3.959798"
     inkscape:cx="90.42414"
     inkscape:cy="35.844672"
     inkscape:document-units="px"
     inkscape:current-layer="layer1"
     showgrid="true"
     width="200px"
     inkscape:window-width="1280"
     inkscape:window-height="752"
     inkscape:window-x="0"
     inkscape:window-y="0"
     inkscape:window-maximized="1">
    <inkscape:grid
       type="xygrid"
       id="grid2985"
       empspacing="5"
       visible="true"
       enabled="true"
       snapvisiblegridlinesonly="true" />
  </sodipodi:namedview>
  <metadata
     id="metadata7">
    <rdf:RDF>
      <cc:Work
         rdf:about="">
        <dc:format>image/svg+xml</dc:format>
        <dc:type
           rdf:resource="http://purl.org/dc/dcmitype/StillImage" />
        <dc:title></dc:title>
      </cc:Work>
    </rdf:RDF>
  </metadata>
  <g
     inkscape:label="Calque 1"
     inkscape:groupmode="layer"
     id="layer1"
     transform="translate(0,-1012.3622)">
    <g
       transform="scale(1.0200762,0.98031888)"
       style="font-size:49.79024124px;font-style:normal;font-weight:normal;line-height:125%;letter-spacing:0px;word-spacing:0px;fill:#f2f2f2;fill-opacity:1;stroke:none;font-family:Sans"
       id="text2987">
      <path
         d="m 21.317418,1058.567 c -2.4e-5,-3.2901 -0.68075,-5.8672 -2.042178,-7.7311 -1.345265,-1.8801 -3.201052,-2.8201 -5.567366,-2.8201 -2.366347,0 -4.2302379,0.94 -5.5916774,2.8201 -1.3452538,1.8639 -2.0178752,4.441 -2.0178662,7.7311 -9e-6,3.2902 0.6726124,5.8753 2.0178662,7.7554 1.3614395,1.8639 3.2253304,2.7959 5.5916774,2.7959 2.366314,0 4.222101,-0.932 5.567366,-2.7959 1.361428,-1.8801 2.042154,-4.4652 2.042178,-7.7554 m -15.2190876,-9.5058 c 0.9400402,-1.6208 2.1232055,-2.8202 3.5494996,-3.5982 1.442477,-0.7941 3.160498,-1.1912 5.154068,-1.1912 3.306362,0 5.988744,1.3128 8.047153,3.9385 2.074566,2.6256 3.111861,6.0779 3.11189,10.3567 -2.9e-5,4.2789 -1.037324,7.7311 -3.11189,10.3568 -2.058409,2.6256 -4.740791,3.9385 -8.047153,3.9385 -1.99357,0 -3.711591,-0.389 -5.154068,-1.167 -1.4262941,-0.7942 -2.6094594,-2.0017 -3.5494996,-3.6224 l 0,4.0843 -4.4976536,0 0,-37.8289 4.4976536,0 0,14.7329"
         style="font-variant:normal;font-weight:500;font-stretch:normal;letter-spacing:-3.73426819px;fill:#f2f2f2;font-family:Sans;-inkscape-font-specification:Lucida Medium"
         id="path3011" />
      <path
         d="m 29.179802,1061.4115 0,-16.4833 4.473342,0 0,16.3131 c -9e-6,2.577 0.502431,4.5139 1.507322,5.8105 1.00487,1.2804 2.51219,1.9206 4.521965,1.9206 2.414939,0 4.319349,-0.7699 5.713236,-2.3096 1.410053,-1.5397 2.11509,-3.6386 2.115112,-6.2967 l 0,-15.4379 4.473342,0 0,27.229 -4.473342,0 0,-4.1816 c -1.085941,1.6532 -2.350145,2.885 -3.792616,3.6954 -1.4263,0.7942 -3.087594,1.1913 -4.983886,1.1913 -3.128109,0 -5.502543,-0.9725 -7.123311,-2.9174 -1.620781,-1.945 -2.431168,-4.7894 -2.431164,-8.5334"
         style="font-variant:normal;font-weight:500;font-stretch:normal;letter-spacing:-3.73426819px;fill:#f2f2f2;font-family:Sans;-inkscape-font-specification:Lucida Medium"
         id="path3013" />
      <path
         d="m 74.8711,1045.7305 0,4.2302 c -1.264226,-0.6483 -2.577054,-1.1345 -3.938486,-1.4587 -1.361469,-0.3241 -2.771542,-0.4862 -4.230226,-0.4862 -2.220475,0 -3.889872,0.3404 -5.008198,1.0211 -1.102135,0.6807 -1.653199,1.7018 -1.653191,3.0632 -8e-6,1.0373 0.397082,1.8558 1.19127,2.4555 0.794171,0.5835 2.390634,1.1427 4.789393,1.6775 l 1.531634,0.3404 c 3.176703,0.6807 5.42958,1.6451 6.758636,2.893 1.345221,1.2319 2.017843,2.958 2.017866,5.1784 -2.3e-5,2.5284 -1.004903,4.5301 -3.014643,6.005 -1.993573,1.4749 -4.740786,2.2124 -8.241647,2.2124 -1.458709,0 -2.982237,-0.1459 -4.570588,-0.4376 -1.572159,-0.2756 -3.233453,-0.697 -4.983887,-1.2643 l 0,-4.6192 c 1.653188,0.8591 3.282066,1.5074 4.88664,1.945 1.604559,0.4214 3.192918,0.6321 4.765082,0.6321 2.106994,0 3.727769,-0.3566 4.862328,-1.0697 1.134525,-0.7294 1.701796,-1.7505 1.701815,-3.0633 -1.9e-5,-1.2156 -0.413316,-2.1475 -1.239894,-2.7958 -0.810404,-0.6483 -2.60136,-1.2723 -5.372872,-1.872 l -1.555945,-0.3647 c -2.771535,-0.5835 -4.773192,-1.4749 -6.004976,-2.6743 -1.231793,-1.2156 -1.847687,-2.8769 -1.847684,-4.9839 -3e-6,-2.5608 0.90763,-4.5381 2.722903,-5.932 1.815262,-1.3939 4.392294,-2.0908 7.731102,-2.0908 1.653177,0 3.20912,0.1216 4.667835,0.3646 1.458679,0.2432 2.803922,0.6079 4.035733,1.0941"
         style="font-variant:normal;font-weight:500;font-stretch:normal;letter-spacing:-3.73426819px;fill:#f2f2f2;font-family:Sans;-inkscape-font-specification:Lucida Medium"
         id="path3015" />
      <path
         d="m 79.572967,1034.3283 4.497653,0 0,22.3424 13.347091,-11.7425 5.713239,0 -14.441118,12.7393 15.048908,14.4897 -5.834796,0 -13.833324,-13.2984 0,13.2984 -4.497653,0 0,-37.8289"
         style="font-variant:normal;font-weight:500;font-stretch:normal;letter-spacing:-3.73426819px;fill:#f2f2f2;font-family:Sans;-inkscape-font-specification:Lucida Medium"
         id="path3017" />
      <path
         d="m 126.43123,1057.4244 0,2.188 -20.56765,0 c 0.19449,3.0795 1.11833,5.4296 2.77153,7.0504 1.66939,1.6046 3.98709,2.4069 6.95313,2.4068 1.718,10e-5 3.3793,-0.2106 4.98388,-0.6321 1.62076,-0.4214 3.22532,-1.0535 4.81371,-1.8963 l 0,4.2303 c -1.60459,0.6807 -3.24968,1.1993 -4.93526,1.5559 -1.68563,0.3566 -3.39555,0.5349 -5.12976,0.5349 -4.34369,0 -7.78784,-1.2642 -10.33245,-3.7927 -2.52841,-2.5284 -3.79262,-5.9482 -3.79261,-10.2595 -1e-5,-4.4571 1.19937,-7.9904 3.59812,-10.5998 2.41495,-2.6257 5.6646,-3.9385 9.74897,-3.9385 3.66293,0 6.55601,1.1832 8.67925,3.5495 2.1394,2.3501 3.20911,5.5512 3.20914,9.6031 m -4.47334,-1.3129 c -0.0324,-2.4473 -0.72127,-4.4003 -2.06649,-5.8591 -1.32906,-1.4586 -3.0957,-2.188 -5.29994,-2.188 -2.49601,0 -4.49766,0.7051 -6.00497,2.1151 -1.49113,1.4101 -2.35014,3.3955 -2.57704,5.9564 l 15.94844,-0.024"
         style="font-variant:normal;font-weight:500;font-stretch:normal;letter-spacing:-3.73426819px;fill:#f2f2f2;font-family:Sans;-inkscape-font-specification:Lucida Medium"
         id="path3019" />
      <path
         d="m 153.32963,1057.4244 0,2.188 -20.56765,0 c 0.19449,3.0795 1.11833,5.4296 2.77153,7.0504 1.66939,1.6046 3.98709,2.4069 6.95313,2.4068 1.718,10e-5 3.3793,-0.2106 4.98388,-0.6321 1.62076,-0.4214 3.22532,-1.0535 4.81371,-1.8963 l 0,4.2303 c -1.60459,0.6807 -3.24968,1.1993 -4.93526,1.5559 -1.68563,0.3566 -3.39555,0.5349 -5.12976,0.5349 -4.34369,0 -7.78784,-1.2642 -10.33245,-3.7927 -2.52841,-2.5284 -3.79262,-5.9482 -3.79261,-10.2595 -1e-5,-4.4571 1.19937,-7.9904 3.59812,-10.5998 2.41495,-2.6257 5.6646,-3.9385 9.74897,-3.9385 3.66293,0 6.55601,1.1832 8.67925,3.5495 2.1394,2.3501 3.20911,5.5512 3.20914,9.6031 m -4.47334,-1.3129 c -0.0324,-2.4473 -0.72127,-4.4003 -2.06649,-5.8591 -1.32906,-1.4586 -3.0957,-2.188 -5.29994,-2.188 -2.49601,0 -4.49766,0.7051 -6.00498,2.1151 -1.49112,1.4101 -2.35013,3.3955 -2.57703,5.9564 l 15.94844,-0.024"
         style="font-variant:normal;font-weight:500;font-stretch:normal;letter-spacing:-3.73426819px;fill:#f2f2f2;font-family:Sans;-inkscape-font-specification:Lucida Medium"
         id="path3021" />
      <path
         d="m 161.36219,1037.1971 0,7.7311 9.21411,0 0,3.4766 -9.21411,0 0,14.7814 c -1e-5,2.2205 0.29983,3.6468 0.89953,4.2789 0.61588,0.6321 1.85578,0.9481 3.71968,0.9481 l 4.5949,0 0,3.744 -4.5949,0 c -3.45226,0 -5.8348,-0.6402 -7.14762,-1.9206 -1.31284,-1.2966 -1.96925,-3.6467 -1.96925,-7.0504 l 0,-14.7814 -3.28207,0 0,-3.4766 3.28207,0 0,-7.7311 4.49766,0"
         style="font-variant:normal;font-weight:500;font-stretch:normal;letter-spacing:-3.73426819px;fill:#f2f2f2;font-family:Sans;-inkscape-font-specification:Lucida Medium"
         id="path3023" />
    </g>
  </g>
</svg>
